# xmcd
#
# Track frame offsets: 
#        150
#        24915
#        45498
#        65906
#        84584
#        96783
#        113586
#        129800
#        144912
#        163438
#        182225
#        200942
#        221400
#        236321
#
# Disc length: 3363 seconds
#
# Revision: 0
# Processed by: cddbd v1.5.2PL0 Copyright (c) Steve Scherf et al.
# Submitted via: ExactAudioCopy v0.99pb5
#
DISCID=c00d210e
DTITLE=Danny Rhodes - Danny Rhodes [CD1]
DYEAR=2009
DGENRE=Blues
TTITLE0=Who Done It?
TTITLE1=Boombox
TTITLE2=Cajun Love
TTITLE3=Janie's Eyes
TTITLE4=Drunk Woman Blues
TTITLE5=Passin' Lane
TTITLE6=Desiree
TTITLE7=Painted Lady
TTITLE8=Listen to the Wind
TTITLE9=Sugar Babe
TTITLE10=Livin' with Mr. Blues
TTITLE11=Pawn Shop Ring
TTITLE12=The Vision
TTITLE13=Your Own Little Son
EXTD=
EXTT0=
EXTT1=
EXTT2=
EXTT3=
EXTT4=
EXTT5=
EXTT6=
EXTT7=
EXTT8=
EXTT9=
EXTT10=
EXTT11=
EXTT12=
EXTT13=
PLAYORDER=
